<?xml version="1.0" encoding="UTF-8"?>
<!DOCTYPE svg PUBLIC "-//W3C//DTD SVG 1.1//EN" "http://www.w3.org/Graphics/SVG/1.1/DTD/svg11.dtd">
<svg xmlns="http://www.w3.org/2000/svg" version="1.1" width="421px" height="400px" style="shape-rendering:geometricPrecision; text-rendering:geometricPrecision; image-rendering:optimizeQuality; fill-rule:evenodd; clip-rule:evenodd" xmlns:xlink="http://www.w3.org/1999/xlink">
<g><path style="opacity:1" fill="#f7f9fb" d="M -0.5,-0.5 C 139.833,-0.5 280.167,-0.5 420.5,-0.5C 420.5,132.833 420.5,266.167 420.5,399.5C 280.167,399.5 139.833,399.5 -0.5,399.5C -0.5,266.167 -0.5,132.833 -0.5,-0.5 Z"/></g>
<g><path style="opacity:1" fill="#38404a" d="M 117.5,137.5 C 133.277,138.361 148.277,142.194 162.5,149C 164.667,151.167 166.833,153.333 169,155.5C 178.667,173.167 188.333,190.833 198,208.5C 198.667,234.167 198.667,259.833 198,285.5C 170.888,236.272 144.054,186.939 117.5,137.5 Z"/></g>
<g><path style="opacity:1" fill="#38404a" d="M 214.5,284.5 C 213.502,260.339 213.169,236.006 213.5,211.5C 214.763,206.968 216.597,202.635 219,198.5C 224.921,188.327 230.587,177.994 236,167.5C 241.446,154.013 251.28,145.513 265.5,142C 275.03,139.1 284.697,137.933 294.5,138.5C 267.301,186.9 240.634,235.567 214.5,284.5 Z"/></g>
<g><path style="opacity:1" fill="#d6d9dc" d="M 213.5,211.5 C 213.169,236.006 213.502,260.339 214.5,284.5C 214.44,285.043 214.107,285.376 213.5,285.5C 212.171,260.67 212.171,236.003 213.5,211.5 Z"/></g>
</svg>
